<?xml version="1.0" encoding="utf-8"?>
<!-- Generator: Adobe Illustrator 26.2.1, SVG Export Plug-In . SVG Version: 6.00 Build 0)  -->
<svg version="1.1" id="Laag_1" xmlns="http://www.w3.org/2000/svg" xmlns:xlink="http://www.w3.org/1999/xlink" x="0px" y="0px"
	 viewBox="0 0 626.7 326.8" style="enable-background:new 0 0 626.7 326.8;" xml:space="preserve">
<style type="text/css">
	.st0{fill:#fff; color:#fff}
</style>
<g>
	<ellipse class="st0" cx="132.1" cy="163.4" rx="9.5" ry="10.6"/>
	<polygon class="st0" points="402.8,166.9 411,166.9 406.9,156.3 	"/>
	<polygon class="st0" points="309.8,156.3 305.7,166.9 313.9,166.9 	"/>
	<path class="st0" d="M571.3,148.9h-0.4v1.1h0.8c0.2-0.1,0.3-0.3,0.3-0.6C572,149.1,571.8,148.9,571.3,148.9z"/>
	<path class="st0" d="M546.7,107.1H435.7C414.3,60.7,367.4,28.3,313,28.3c-54.4,0-101.4,32.3-122.8,78.8H79.2
		c-31.1,0-56.3,25.2-56.3,56.3c0,31.1,25.2,56.3,56.3,56.3h110.9c21.4,46.5,68.4,78.8,122.8,78.8c54.4,0,101.4-32.3,122.8-78.8
		h110.9c31.1,0,56.3-25.2,56.3-56.3C602.9,132.3,577.7,107.1,546.7,107.1z M313,51.2c41.4,0,77.6,22.5,97.1,56h-16.3
		C376,81.6,346.4,64.9,313,64.9c-33.4,0-63,16.7-80.8,42.3h-16.3C235.3,73.7,271.5,51.2,313,51.2z M262.3,107.1
		c13.4-12.1,31.2-19.5,50.6-19.5c19.4,0,37.2,7.4,50.6,19.5H262.3z M335.3,184.5h-14.7l-2.8-7.4h-16l-2.8,7.4h-14.5l18.5-42.2h14
		L335.3,184.5z M270.3,142.3H282l0.1,42.2h-13l-0.1-19.2l-9.2,15.4h-6.3l-9.2-14.8v18.6h-13v-42.2h11.7l13.8,22.5L270.3,142.3z
		 M363.6,219.7c-13.4,12.1-31.2,19.4-50.6,19.4c-19.4,0-37.2-7.4-50.6-19.4H363.6z M351.5,165.3v19.2h-13.9v-42.2h11.7l16,19.2
		v-19.2h13.9v42.2h-11.7L351.5,165.3z M88.5,174c3.8,0,6.8-1.8,9.2-4.9l9,8c-4.2,5.4-10.7,8.4-18.9,8.4c-13.6,0-23.5-9.1-23.5-22.1
		s10-22.1,23.5-22.1c8.3,0,14.8,3,18.9,8.4l-9,8c-2.5-3.1-5.4-4.9-9.2-4.9c-5.9,0-9.9,4.1-9.9,10.6C78.6,169.9,82.6,174,88.5,174z
		 M132.1,185.5c-13.8,0-23.8-9.3-23.8-22.1c0-12.8,10.1-22.1,23.8-22.1s23.8,9.3,23.8,22.1C155.9,176.2,145.8,185.5,132.1,185.5z
		 M199.5,184.5l-6.8-22.6l-7.2,22.6h-15.3l-13.5-42.2h14.7l7.4,24l7.8-24h13.1l7.4,24.3l7.8-24.3h13.5l-13.5,42.2H199.5z M313,275.7
		c-41.4,0-77.6-22.5-97.1-56h16.3c17.8,25.5,47.4,42.3,80.8,42.3c33.4,0,63-16.7,80.8-42.3h16.3C390.6,253.1,354.4,275.7,313,275.7z
		 M417.8,184.5l-2.8-7.4h-16.1l-2.8,7.4h-14.5l18.5-42.2h14l18.5,42.2H417.8z M456.9,174c1.7,0,3.4-0.3,5.2-1v-10.7h12.4v17.9
		c-5.1,3.5-12.2,5.4-18.4,5.4c-13.6,0-23.6-9.1-23.6-22.1s10-22.1,23.9-22.1c8.3,0,15,2.9,19.3,8.1l-9.1,8c-2.7-3.1-5.7-4.6-9.5-4.6
		c-6.3,0-10.3,4-10.3,10.6C446.8,169.7,450.8,174,456.9,174z M515.7,184.5h-35.1v-42.2h34.3V153h-20.3v4.9h17.9v10.3h-17.9v5.5h21.1
		V184.5z M546.4,184.5l-7.2-10.6h-3.9v10.6h-14.2v-42.2h20.3c11.8,0,19.2,6.2,19.2,15.9c0,6.1-2.9,10.7-8,13.3l8.9,13H546.4z
		 M571.3,158.7c-5.2,0-8.7-3.7-8.7-8.2c0-4.5,3.5-8.2,8.7-8.2c5.3,0,8.8,3.7,8.8,8.2C580.1,155,576.6,158.7,571.3,158.7z"/>
	<path class="st0" d="M540.6,153.3h-5.2v9.9h5.2c3.9,0,5.8-1.9,5.8-4.9C546.4,155.1,544.5,153.3,540.6,153.3z"/>
	<path class="st0" d="M571.3,144.2c-3.9,0-6.5,2.9-6.5,6.4c0,3.5,2.6,6.3,6.5,6.3c4,0,6.5-2.9,6.5-6.3
		C577.8,147,575.3,144.2,571.3,144.2z M572.1,153.9l-0.9-1.9h-0.3v1.9h-2.6v-7h3.9c1.6,0,2.6,1,2.6,2.3c0,0.8-0.5,1.4-1,1.9l1.5,2.8
		H572.1z"/>
</g>
</svg>
